<svg width="49" height="48" viewBox="0 0 49 48" fill="none" xmlns="http://www.w3.org/2000/svg">
<path d="M33.9384 21.5945C30.8448 21.5945 30.415 24.6822 30.415 24.6822H36.992C36.992 24.6822 37.0339 21.5945 33.9384 21.5945Z" fill="#1A1C20"/>
<path d="M19.0164 24.6821H13.186V30.035H18.3478C18.4355 30.035 18.5671 30.0369 18.7211 30.035C19.5515 30.0155 21.1255 29.7738 21.1255 27.4326C21.1255 24.6539 19.0164 24.6821 19.0164 24.6821Z" fill="#1A1C20"/>
<path d="M24.5008 0C11.2454 0 0.499817 10.7437 0.499817 23.999C0.499817 37.2544 11.2454 48 24.5008 48C37.7542 48 48.4998 37.2544 48.4998 23.999C48.4998 10.7446 37.7532 0 24.5008 0ZM29.5524 14.7466H37.8146V17.2125H29.5524V14.7466ZM25.376 27.6823C25.376 33.7943 19.0164 33.5926 19.0164 33.5926H13.186H13.0154H8.59533V13.5673H13.0154H13.186H19.0164C22.1821 13.5673 24.6811 15.3158 24.6811 18.8986C24.6811 22.4815 21.6255 22.7095 21.6255 22.7095C25.6538 22.7095 25.376 27.6823 25.376 27.6823ZM40.8322 27.3548H30.455C30.455 31.0741 33.9784 30.8402 33.9784 30.8402C37.3059 30.8402 37.1899 28.6852 37.1899 28.6852H40.7152C40.7152 34.4035 33.8604 34.0117 33.8604 34.0117C25.6382 34.0117 26.1675 26.3557 26.1675 26.3557C26.1675 26.3557 26.1597 18.6628 33.8604 18.6628C41.9667 18.6628 40.8322 27.3548 40.8322 27.3548Z" fill="#1A1C20"/>
<path d="M20.4326 19.2096C20.4326 17.1267 19.0164 17.1267 19.0164 17.1267H18.2659H13.186V21.5945H18.6548C19.5983 21.5945 20.4326 21.2914 20.4326 19.2096Z" fill="#1A1C20"/>
</svg>
