<svg width="64" height="65" viewBox="0 0 64 65" fill="none" xmlns="http://www.w3.org/2000/svg">
<path d="M32.0013 4.15645C32.0013 4.15645 48.5056 3.41846 57.2558 19.9486H30.5969C30.5969 19.9486 25.5658 19.787 21.2682 25.8687C20.0336 28.4213 18.7066 31.0508 20.1958 36.2329C18.0506 32.6115 8.80688 16.5735 8.80688 16.5735C8.80688 16.5735 15.3269 4.80994 32.001 4.15645H32.0013Z" fill="#EF3F36"/>
<path d="M56.399 46.12C56.399 46.12 48.7833 60.7357 30.0491 60.013C32.3639 56.0226 43.3821 37.0091 43.3821 37.0091C43.3821 37.0091 46.0443 32.7498 42.9038 25.9993C41.3064 23.6544 39.6783 21.2017 34.4317 19.8945C38.6524 19.8563 57.2093 19.8945 57.2093 19.8945C57.2093 19.8945 64.1612 31.4043 56.399 46.12Z" fill="#FCD900"/>
<path d="M7.71862 46.2355C7.71862 46.2355 -1.17798 32.3577 8.8219 16.5502C11.129 20.5406 22.1474 39.5542 22.1474 39.5542C22.1474 39.5542 24.524 43.9829 31.9545 44.6438C34.7864 44.4364 37.7338 44.2595 41.4995 40.3922C39.4235 44.0521 30.1101 60.044 30.1101 60.044C30.1101 60.044 16.6227 60.2901 7.7184 46.2355H7.71862Z" fill="#61BC5B"/>
<path d="M30.0415 60.1514L33.7914 44.5594C33.7914 44.5594 37.9119 44.2362 41.3688 40.4614C39.2236 44.2212 30.0415 60.1514 30.0415 60.1514Z" fill="#5AB055"/>
<path d="M19.4395 32.3268C19.4395 25.4535 25.0337 19.8793 31.9316 19.8793C38.8296 19.8793 44.4238 25.4535 44.4238 32.3268C44.4238 39.2003 38.8296 44.7742 31.9316 44.7742C25.0337 44.7666 19.4395 39.2003 19.4395 32.3268Z" fill="white"/>
<path d="M21.5305 32.327C21.5305 26.6069 26.1834 21.963 31.9319 21.963C37.6725 21.963 42.3331 26.5992 42.3331 32.327C42.3331 38.0473 37.6804 42.6913 31.9319 42.6913C26.1911 42.6913 21.5305 38.0473 21.5305 32.327Z" fill="url(#paint0_linear)"/>
<path d="M57.2015 19.9025L41.7618 24.4157C41.7618 24.4157 39.4317 21.0095 34.4241 19.9025C38.7682 19.8794 57.2015 19.9025 57.2015 19.9025Z" fill="#EACA05"/>
<path d="M19.8949 35.6641C17.7265 31.9197 8.80688 16.5734 8.80688 16.5734L20.242 27.8448C20.242 27.8448 19.0691 30.2513 19.5091 33.6957L19.8947 35.6641H19.8949Z" fill="#DF3A32"/>
<defs>
<linearGradient id="paint0_linear" x1="31.9314" y1="22.1093" x2="31.9314" y2="42.0673" gradientUnits="userSpaceOnUse">
<stop stop-color="#86BBE5"/>
<stop offset="1" stop-color="#1072BA"/>
</linearGradient>
</defs>
</svg>
