<svg width="30" height="30" viewBox="0 0 30 30" fill="none" xmlns="http://www.w3.org/2000/svg">
<path d="M22.8749 7.13749C22.3874 6.64999 21.5999 6.64999 21.1124 7.13749L14.9999 13.2375L8.8874 7.12499C8.3999 6.63749 7.6124 6.63749 7.1249 7.12499C6.6374 7.61249 6.6374 8.39999 7.1249 8.88749L13.2374 15L7.1249 21.1125C6.6374 21.6 6.6374 22.3875 7.1249 22.875C7.6124 23.3625 8.3999 23.3625 8.8874 22.875L14.9999 16.7625L21.1124 22.875C21.5999 23.3625 22.3874 23.3625 22.8749 22.875C23.3624 22.3875 23.3624 21.6 22.8749 21.1125L16.7624 15L22.8749 8.88749C23.3499 8.41249 23.3499 7.61249 22.8749 7.13749Z" fill="#1A1C20"/>
</svg>
