<svg width="58" height="65" viewBox="0 0 58 65" fill="none" xmlns="http://www.w3.org/2000/svg">
<g clip-path="url(#clip0)">
<path d="M19.9942 44.6114C16.6047 41.4212 14.6108 37.0348 14.6108 32.0502C14.6108 27.0656 16.6047 22.6791 19.7948 19.489C22.5862 16.6976 22.5862 12.3112 19.7948 9.5198C17.0034 6.72843 12.617 6.72843 9.8256 9.5198C4.24284 15.3019 0.653931 23.2773 0.653931 32.0502C0.653931 40.8231 4.24284 48.7985 10.025 54.5806C12.8164 57.372 17.2028 57.372 19.9942 54.5806C22.5862 51.7892 22.5862 47.4028 19.9942 44.6114Z" fill="#FAE501"/>
<path d="M19.9941 19.4891C23.1843 16.0995 27.5707 14.1057 32.5553 14.1057C37.5399 14.1057 41.9264 16.0995 45.1165 19.2897C47.9079 22.081 52.2943 22.081 55.0857 19.2897C57.8771 16.4983 57.8771 12.1118 55.0857 9.32047C49.3036 3.73772 41.3282 0.148804 32.5553 0.148804C23.7824 0.148804 15.8071 3.73772 10.0249 9.51985C7.23355 12.3112 7.23355 16.6977 10.0249 19.4891C12.8163 22.081 17.2028 22.081 19.9941 19.4891Z" fill="#4FB5E1"/>
<path d="M45.1165 44.6114C41.9264 48.0009 37.5399 49.9947 32.5553 49.9947C27.5707 49.9947 23.1843 48.0009 19.9941 44.8107C17.2028 42.0194 12.8163 42.0194 10.0249 44.8107C7.23355 47.6021 7.23355 51.9886 10.0249 54.7799C15.8071 60.3627 23.7824 63.9516 32.5553 63.9516C41.3282 63.9516 49.3036 60.3627 55.0857 54.5805C57.8771 51.7892 57.8771 47.4027 55.0857 44.6114C52.2943 42.0194 47.9079 42.0194 45.1165 44.6114Z" fill="#F05751"/>
<path d="M15.0096 21.4829C18.8637 21.4829 21.988 18.3585 21.988 14.5044C21.988 10.6504 18.8637 7.526 15.0096 7.526C11.1555 7.526 8.03113 10.6504 8.03113 14.5044C8.03113 18.3585 11.1555 21.4829 15.0096 21.4829Z" fill="#0681B6"/>
<path d="M15.0096 56.5744C18.8637 56.5744 21.988 53.4501 21.988 49.596C21.988 45.7419 18.8637 42.6176 15.0096 42.6176C11.1555 42.6176 8.03113 45.7419 8.03113 49.596C8.03113 53.4501 11.1555 56.5744 15.0096 56.5744Z" fill="#CD4739"/>
</g>
<defs>
<clipPath id="clip0">
<rect width="56.692" height="64" fill="white" transform="translate(0.653931 0.148804)"/>
</clipPath>
</defs>
</svg>
