<svg width="64" height="65" viewBox="0 0 64 65" fill="none" xmlns="http://www.w3.org/2000/svg">
<g clip-path="url(#clip0)">
<path d="M32 0.148804C14.3269 0.148804 0 14.4756 0 32.1488C0 49.822 14.327 64.1488 32 64.1488C49.6732 64.1488 64 49.822 64 32.1488C64 14.4756 49.6732 0.148804 32 0.148804ZM6.87599 32.4824L31.6664 57.2728C18.0536 57.0954 7.05337 46.0951 6.87599 32.4824ZM37.6241 56.6446L7.50417 26.5247C10.0582 15.3546 20.0556 7.0206 32 7.0206C40.3494 7.0206 47.7462 11.0938 52.3157 17.3604L48.8365 20.4303C45.1299 15.1147 38.9717 11.636 32 11.636C23.1237 11.636 15.5649 17.2741 12.7078 25.1642L38.9846 51.4411C45.366 49.1302 50.2738 43.7435 51.9175 37.0719H41.0257V32.1489H52.5128V32.1487H57.1282V32.1488C57.1282 44.0932 48.7942 54.0906 37.6241 56.6446Z" fill="#744C9E"/>
</g>
<defs>
<clipPath id="clip0">
<rect width="64" height="64" fill="white" transform="translate(0 0.148804)"/>
</clipPath>
</defs>
</svg>
