<svg width="64" height="65" viewBox="0 0 64 65" fill="none" xmlns="http://www.w3.org/2000/svg">
<path d="M62.7929 29.2984L34.8495 1.35714C33.2414 -0.252347 30.6313 -0.252347 29.0211 1.35714L23.2187 7.15957L30.5793 14.5202C32.2899 13.9423 34.2512 14.3299 35.6149 15.6936C36.985 17.0658 37.3698 19.0439 36.7778 20.7601L43.8716 27.8539C45.5878 27.2627 47.5681 27.6454 48.9388 29.0182C50.8545 30.9332 50.8545 34.037 48.9388 35.9533C47.0225 37.8697 43.9187 37.8697 42.0016 35.9533C40.5607 34.511 40.2046 32.3945 40.9342 30.6193L34.3186 24.0037L34.3179 41.4131C34.7849 41.6448 35.2259 41.9531 35.6149 42.3407C37.5306 44.2557 37.5306 47.3595 35.6149 49.2772C33.6986 51.1929 30.5934 51.1929 28.6798 49.2772C26.7642 47.3595 26.7642 44.2557 28.6798 42.3407C29.1531 41.8681 29.7008 41.5107 30.2851 41.2705V23.6989C29.7008 23.4602 29.1538 23.1048 28.6798 22.6287C27.2283 21.1794 26.8793 19.0495 27.623 17.2673L20.3677 10.0106L1.20764 29.1692C-0.402547 30.7801 -0.402547 33.3902 1.20764 34.9997L29.151 62.9417C30.7598 64.5512 33.3692 64.5512 34.9801 62.9417L62.7929 35.1296C64.4024 33.5194 64.4024 30.9079 62.7929 29.2984Z" fill="#DE4C36"/>
</svg>
