<svg width="64" height="63" viewBox="0 0 64 63" fill="none" xmlns="http://www.w3.org/2000/svg">
<g clip-path="url(#clip0)">
<path d="M32.0003 0.399994C14.3293 0.399994 0 14.7267 0 32.4003C0 46.5388 9.16905 58.5339 21.8837 62.7652C23.483 63.0614 24.0701 62.071 24.0701 61.2258C24.0701 60.4628 24.0405 57.942 24.0267 55.268C15.1242 57.2038 13.2457 51.4924 13.2457 51.4924C11.79 47.7936 9.6926 46.8101 9.6926 46.8101C6.78922 44.824 9.91146 44.8648 9.91146 44.8648C13.1248 45.0906 14.8168 48.1625 14.8168 48.1625C17.6709 53.0546 22.3029 51.6403 24.129 50.8226C24.4162 48.7544 25.2455 47.3427 26.1606 46.5436C19.0529 45.7344 11.5812 42.9905 11.5812 30.7289C11.5812 27.2352 12.8313 24.3806 14.8783 22.1396C14.5461 21.3336 13.4507 18.0789 15.1883 13.6711C15.1883 13.6711 17.8755 12.811 23.9907 16.9512C26.5432 16.2422 29.2808 15.8866 32.0003 15.8745C34.7198 15.8866 37.4594 16.2422 40.0168 16.9512C46.1245 12.811 48.808 13.6711 48.808 13.6711C50.5498 18.0789 49.4539 21.3336 49.1217 22.1396C51.1735 24.3806 52.4151 27.2352 52.4151 30.7289C52.4151 43.0197 44.929 45.7259 37.8033 46.5181C38.9511 47.5112 39.9738 49.4586 39.9738 52.4441C39.9738 56.7258 39.9367 60.1718 39.9367 61.2258C39.9367 62.0774 40.5128 63.0752 42.1348 62.761C54.8426 58.5249 64 46.534 64 32.4003C64 14.7267 49.6728 0.399994 32.0003 0.399994ZM11.9851 45.985C11.9147 46.144 11.6645 46.1917 11.4367 46.0826C11.2046 45.9782 11.0742 45.7614 11.1495 45.6019C11.2184 45.4382 11.469 45.3926 11.7006 45.5023C11.9332 45.6067 12.0657 45.8255 11.9851 45.985ZM13.5592 47.3896C13.4066 47.531 13.1082 47.4653 12.9058 47.2417C12.6965 47.0186 12.6573 46.7203 12.812 46.5767C12.9694 46.4352 13.2587 46.5014 13.4686 46.7245C13.6779 46.9503 13.7187 47.2465 13.5592 47.3896ZM14.6391 49.1866C14.443 49.3228 14.1224 49.1951 13.9242 48.9105C13.7281 48.6259 13.7281 48.2847 13.9284 48.148C14.1272 48.0112 14.443 48.1342 14.6438 48.4166C14.8394 48.7059 14.8394 49.0472 14.6391 49.1866ZM16.4653 51.2678C16.2899 51.4612 15.9164 51.4093 15.6429 51.1454C15.3631 50.8873 15.2852 50.5211 15.4612 50.3277C15.6387 50.1338 16.0144 50.1884 16.2899 50.4501C16.5676 50.7077 16.6524 51.0765 16.4653 51.2678ZM18.8256 51.9704C18.7483 52.221 18.3885 52.335 18.026 52.2284C17.6641 52.1188 17.4272 51.8252 17.5003 51.5719C17.5756 51.3196 17.937 51.201 18.3021 51.3149C18.6635 51.424 18.9009 51.7155 18.8256 51.9704ZM21.5117 52.2684C21.5207 52.5323 21.2134 52.7512 20.8329 52.7559C20.4503 52.7644 20.1409 52.5508 20.1366 52.2912C20.1366 52.0246 20.4371 51.8079 20.8197 51.8015C21.2001 51.7941 21.5117 52.0061 21.5117 52.2684ZM24.1505 52.1672C24.1961 52.4248 23.9317 52.6892 23.5539 52.7597C23.1824 52.8275 22.8385 52.6685 22.7913 52.4131C22.7452 52.1492 23.0144 51.8848 23.3853 51.8164C23.7637 51.7507 24.1023 51.9055 24.1505 52.1672Z" fill="#161614"/>
</g>
<defs>
<clipPath id="clip0">
<rect width="64" height="62.5" fill="white" transform="translate(0 0.399994)"/>
</clipPath>
</defs>
</svg>
