<svg width="58" height="65" viewBox="0 0 58 65" fill="none" xmlns="http://www.w3.org/2000/svg">
<g clip-path="url(#clip0)">
<path fill-rule="evenodd" clip-rule="evenodd" d="M34.4613 7.47523L47.6049 15.0639C47.975 14.6719 48.4073 14.3257 48.8977 14.0409C51.6236 12.4739 55.1004 13.4043 56.6838 16.1302C58.2508 18.8562 57.3204 22.333 54.5944 23.9163C54.1078 24.1961 53.5966 24.3962 53.0764 24.5208V39.704C53.591 39.8288 54.0965 40.0277 54.5781 40.3046C57.3204 41.8879 58.2508 45.3647 56.6674 48.0906C55.1004 50.8166 51.6073 51.747 48.8814 50.18C48.3387 49.868 47.8671 49.4797 47.4723 49.0363L34.4089 56.5786C34.5957 57.1429 34.6967 57.7465 34.6967 58.3741C34.6967 61.5081 32.1503 64.0708 29 64.0708C25.8497 64.0708 23.3033 61.5244 23.3033 58.3741C23.3033 57.8141 23.3837 57.2732 23.5337 56.7623L10.3937 49.1757C10.0275 49.56 9.60118 49.8997 9.11859 50.18C6.37633 51.747 2.89953 50.8166 1.33253 48.0906C-0.234479 45.3647 0.69593 41.8879 3.42187 40.3046C3.90384 40.0275 4.40928 39.8285 4.92358 39.7037V24.5208C4.40334 24.3962 3.89221 24.1961 3.40555 23.9163C0.679607 22.3493 -0.250802 18.8562 1.3162 16.1302C2.88321 13.4043 6.37633 12.4739 9.10227 14.0409C9.59002 14.3242 10.0203 14.6681 10.389 15.0575L23.5362 7.46679C23.3846 6.95346 23.3033 6.40975 23.3033 5.84675C23.3033 2.69641 25.8497 0.150024 29 0.150024C32.1503 0.150024 34.6967 2.69641 34.6967 5.84675C34.6967 6.41283 34.6145 6.95942 34.4613 7.47523ZM33.0919 9.81333L46.2668 17.4201C45.8595 18.8504 46.009 20.4364 46.8084 21.8269C47.6103 23.2221 48.9168 24.1469 50.3668 24.5073V39.7095C50.2929 39.7277 50.2194 39.7473 50.1463 39.7683L32.9389 9.96527C32.9909 9.91559 33.0419 9.86493 33.0919 9.81333ZM25.0646 9.96872L7.85761 39.7713C7.78322 39.7497 7.7084 39.7296 7.6332 39.711V24.5073C9.08315 24.1469 10.3896 23.2221 11.1916 21.8269C11.9926 20.4336 12.141 18.8441 11.7308 17.4116L24.9019 9.80699C24.9551 9.86198 25.0093 9.9159 25.0646 9.96872ZM30.5917 11.3189L47.7948 41.1147C47.4098 41.4818 47.0705 41.9095 46.792 42.3939C46.5152 42.8755 46.3163 43.381 46.1915 43.8956H11.8088C11.684 43.3813 11.485 42.8759 11.2079 42.3939C10.9284 41.9126 10.5897 41.4872 10.2067 41.1217L27.4131 11.3202C27.9166 11.4656 28.4491 11.5435 29 11.5435C29.5526 11.5435 30.0867 11.4651 30.5917 11.3189ZM33.2129 54.5362L46.3022 46.9789C46.263 46.8556 46.2279 46.7309 46.197 46.6052H11.8015C11.7833 46.6791 11.7635 46.7526 11.7424 46.8256L24.8959 54.4201C25.9316 53.3453 27.3866 52.6774 29 52.6774C30.6707 52.6774 32.1716 53.3936 33.2129 54.5362Z" fill="#E535AB"/>
</g>
<defs>
<clipPath id="clip0">
<rect width="56.8889" height="64" fill="white" transform="translate(0.555542 0.150024)"/>
</clipPath>
</defs>
</svg>
