<svg width="30" height="65" viewBox="0 0 30 65" fill="none" xmlns="http://www.w3.org/2000/svg">
<g clip-path="url(#clip0)">
<path d="M22.8338 62.4494L23.4474 52.2241L25.1419 49.3316C25.1419 49.3316 21.2853 50.9092 14.8289 50.9092C8.37239 50.9092 4.57434 49.3608 4.57434 49.3608L6.47331 52.516L7.14508 62.4494C7.14508 63.5143 10.6571 64.3775 14.9895 64.3775C19.3217 64.3775 22.8338 63.5143 22.8338 62.4494Z" fill="#D34A47"/>
<path d="M20.898 14.6987L22.186 9.60753L29.3189 2.10211L27.4389 0.50087L19.8874 8.49601L18.3918 14.5786C17.3082 14.542 16.1774 14.5224 15.014 14.5224C7.06078 14.5224 0.613403 15.4288 0.613403 16.5467C0.613403 17.6646 7.06078 18.5709 15.014 18.5709C22.967 18.5709 29.4143 17.6646 29.4143 16.5467C29.4143 15.7235 25.9176 15.015 20.898 14.6987Z" fill="#D34A47"/>
<path d="M20.1488 17.5499C20.1488 17.5499 19.8698 17.6124 19.0492 17.6159C18.2284 17.6193 17.6456 17.6106 17.4135 17.3991C17.3511 17.3424 17.3169 17.2296 17.3173 17.1533C17.3179 17.008 17.4211 16.9224 17.5525 16.8688L17.6767 17.0637C17.6227 17.0824 17.5918 17.1045 17.5917 17.128C17.5912 17.2383 18.4309 17.3139 19.0732 17.3057C19.7156 17.2978 20.4917 17.2449 20.4924 17.1361C20.4924 17.1032 20.4337 17.0722 20.3316 17.0478L20.4553 16.8542C20.6217 16.9059 20.767 17.0057 20.7667 17.1785C20.7651 17.4723 20.3913 17.5169 20.1488 17.5499Z" fill="white"/>
<path d="M29.3048 2.11691C29.4842 1.90976 29.212 1.3799 28.697 0.933593C28.1817 0.487515 27.6186 0.293706 27.4389 0.500858C27.2594 0.70801 27.5317 1.23788 28.047 1.68395C28.5621 2.13014 29.1254 2.32418 29.3048 2.11691Z" fill="#D34A47"/>
<path d="M22.4906 37.4731C22.3216 35.8466 26.0482 33.491 25.0918 33.4156C23.0329 33.5333 22.0082 35.8284 20.9724 38.2321C20.5928 39.1131 19.2939 42.8696 18.442 42.4072C17.5903 41.9449 19.5462 38.8558 20.0943 37.0213C19.4618 37.4852 17.1421 39.2874 16.5443 37.5996C15.5831 38.4159 13.5294 38.8581 13.7611 36.7139C13.2497 37.6196 12.1021 38.8841 10.7247 38.3587C8.91571 37.6688 11.7729 31.9064 12.4833 32.1971C13.1939 32.4877 12.3399 33.8004 12.1163 34.3101C11.6244 35.432 11.0562 36.8422 11.4358 37.1309C12.0861 37.6255 13.8557 35.2599 13.895 35.2078C14.226 34.7706 15.1689 31.9099 15.9289 32.2384C16.6889 32.5669 14.0333 36.3439 15.0262 37.0935C15.2265 37.2448 16.0458 37.0002 16.5443 36.4609C16.8668 36.1121 16.7558 35.3395 17.8308 32.7758C18.9058 30.2123 19.8639 27.0198 20.6011 27.263C21.3384 27.5061 20.7307 29.1447 20.4662 29.7555C19.2251 32.6224 17.079 37.3587 18.0911 37.0002C19.1032 36.6417 19.6303 36.6207 20.6214 35.4609C21.6125 34.3011 21.5668 32.3907 22.2274 32.4313C22.8882 32.472 22.7773 33.0845 22.617 33.551C23.2672 32.8069 25.699 31.24 26.2861 32.7919C26.9815 34.6292 22.8069 37.2832 23.8477 37.1479C24.8626 37.0159 26.5067 35.9746 27.2086 35.0278L29.1408 17.6567C29.1408 17.6567 27.1965 19.2657 14.8269 19.2657C2.45714 19.2657 0.713989 17.6902 0.713989 17.6902L2.35899 33.5459C3.23215 31.0642 5.30559 26.0446 8.57389 26.2131C10.0606 26.2898 12.0453 29.1525 10.3452 29.2495C9.62559 29.2904 9.55255 27.8206 8.70042 27.6047C8.08552 27.4489 7.22944 27.9488 6.67617 28.4904C5.57279 29.5703 3.1997 33.8308 3.51325 35.9549C3.91275 38.6629 7.25013 35.0139 7.81482 33.9306C8.21251 33.1674 8.48117 30.9064 9.35094 31.1436C10.2208 31.3808 9.27506 33.7142 8.64456 35.7773C7.93626 38.0938 7.56391 40.5375 6.67617 40.2564C5.78831 39.9755 7.23453 36.9849 7.18217 36.4609C6.34769 37.2308 4.81033 39.18 2.84352 38.2153L3.86514 48.0616C3.86514 48.0616 6.58039 50.2069 14.7598 50.2069C22.9393 50.2069 25.7551 48.095 25.7551 48.095L27.0236 36.6907C25.9857 37.7014 22.7009 39.4961 22.4906 37.4731Z" fill="#D34A47"/>
</g>
<defs>
<clipPath id="clip0">
<rect width="28.947" height="64" fill="white" transform="translate(0.526489 0.399994)"/>
</clipPath>
</defs>
</svg>
