<svg width="49" height="48" viewBox="0 0 49 48" fill="none" xmlns="http://www.w3.org/2000/svg">
<path fill-rule="evenodd" clip-rule="evenodd" d="M24.4998 48C37.7547 48 48.4998 37.2548 48.4998 24C48.4998 10.7452 37.7547 0 24.4998 0C11.245 0 0.499817 10.7452 0.499817 24C0.499817 37.2548 11.245 48 24.4998 48ZM28.7142 10.5H33.6054C33.7684 10.5 33.9246 10.5648 34.0398 10.68C34.155 10.7952 34.2198 10.9515 34.2198 11.1144V36.6456C34.2198 36.8085 34.155 36.9648 34.0398 37.08C33.9246 37.1952 33.7684 37.26 33.6054 37.26H28.7142C28.5513 37.26 28.395 37.1952 28.2798 37.08C28.1646 36.9648 28.0998 36.8085 28.0998 36.6456V27H20.8998V36.6456C20.8998 36.8085 20.835 36.9648 20.7198 37.08C20.6046 37.1952 20.4484 37.26 20.2854 37.26H15.3942C15.2313 37.26 15.075 37.1952 14.9598 37.08C14.8446 36.9648 14.7798 36.8085 14.7798 36.6456V11.1144C14.7798 10.9515 14.8446 10.7952 14.9598 10.68C15.075 10.5648 15.2313 10.5 15.3942 10.5H20.2854C20.4484 10.5 20.6046 10.5648 20.7198 10.68C20.835 10.7952 20.8998 10.9515 20.8998 11.1144V20.88H28.0998V11.1144C28.0998 10.9515 28.1646 10.7952 28.2798 10.68C28.395 10.5648 28.5513 10.5 28.7142 10.5Z" fill="#1A1C20"/>
</svg>
