<svg width="49" height="48" viewBox="0 0 49 48" fill="#50B56F" xmlns="http://www.w3.org/2000/svg">
<circle cx="24.4998" cy="24" r="24" fill="#1A1C20"/>
<path d="M28.7142 10.5601H33.6054C33.7684 10.5601 33.9246 10.6248 34.0398 10.7401C34.155 10.8553 34.2198 11.0115 34.2198 11.1745V36.7057C34.2198 36.8686 34.155 37.0249 34.0398 37.1401C33.9246 37.2553 33.7684 37.32 33.6054 37.3201H28.7142C28.5513 37.32 28.395 37.2553 28.2798 37.1401C28.1646 37.0249 28.0998 36.8686 28.0998 36.7057V27.0601H20.8998V36.7057C20.8998 36.8686 20.835 37.0249 20.7198 37.1401C20.6046 37.2553 20.4484 37.32 20.2854 37.3201H15.3942C15.2313 37.32 15.075 37.2553 14.9598 37.1401C14.8446 37.0249 14.7798 36.8686 14.7798 36.7057V11.1745C14.7798 11.0115 14.8446 10.8553 14.9598 10.7401C15.075 10.6248 15.2313 10.5601 15.3942 10.5601H20.2854C20.4484 10.5601 20.6046 10.6248 20.7198 10.7401C20.835 10.8553 20.8998 11.0115 20.8998 11.1745V20.9401H28.0998V11.1745C28.0998 11.0115 28.1646 10.8553 28.2798 10.7401C28.395 10.6248 28.5513 10.5601 28.7142 10.5601Z" fill="#EEEFF1"/>
</svg>
