<svg width="64" height="65" viewBox="0 0 64 65" fill="none" xmlns="http://www.w3.org/2000/svg">
<rect x="4" y="4.1488" width="56" height="56" fill="#FFCA28"/>
<path d="M38 50.7241L42.1231 47.9959C42.4462 49.0111 44.4923 51.422 47.0769 51.422C49.6615 51.422 50.8615 50.0104 50.8615 49.0745C50.8615 46.5241 48.2223 45.6249 46.9547 45.193C46.7481 45.1226 46.5779 45.0646 46.4615 45.0139C46.4019 44.988 46.3116 44.9535 46.1958 44.9092C44.7859 44.3706 39.5846 42.3834 39.5846 36.6231C39.5846 30.2785 45.7077 29.5488 47.0923 29.5488C47.9982 29.5488 52.3538 29.6599 54.5231 33.7363L50.5231 36.528C49.6462 34.7515 48.1892 34.1646 47.2923 34.1646C45.0769 34.1646 44.6154 35.7887 44.6154 36.528C44.6154 38.6024 47.0223 39.5322 49.0547 40.3172C49.5864 40.5226 50.0925 40.7181 50.5231 40.9216C52.7385 41.9685 56 43.6815 56 49.0745C56 51.7757 53.7344 56.1488 48.0308 56.1488C40.3692 56.1488 38.3385 51.549 38 50.7241Z" fill="#3E3E3E"/>
<path d="M18 51.2659L22.2973 48.5391C22.6341 49.5537 23.9425 51.4245 25.8411 51.4245C27.7396 51.4245 28.7113 49.4745 28.7113 48.5391V30.1488H33.9964V48.5391C34.0819 51.0757 32.6751 56.1488 26.4664 56.1488C20.758 56.1488 18.3848 52.7562 18 51.2659Z" fill="#3E3E3E"/>
</svg>
