<svg width="64" height="65" viewBox="0 0 64 65" fill="none" xmlns="http://www.w3.org/2000/svg">
<g clip-path="url(#clip0)">
<path d="M31.9458 48.0398C46.1049 67.3419 59.9617 42.6524 59.9413 27.8051C59.9172 10.2507 42.1249 0.439636 31.9342 0.439636C15.5773 0.439636 0 13.9581 0 32.454C0 53.0124 17.8562 64.4 31.9342 64.4C28.7485 63.9413 18.1318 61.6664 17.9891 37.2133C17.8931 20.6746 23.3841 14.0671 31.9112 16.9737C32.1022 17.0445 41.3167 20.6795 41.3167 32.5539C41.3167 44.3778 31.9458 48.0398 31.9458 48.0398Z" fill="url(#paint0_linear)"/>
<path d="M31.9293 16.9603C22.5732 13.7356 11.1121 21.4466 11.1121 36.8918C11.1121 62.111 29.8003 64.4 32.0657 64.4C48.4227 64.4 64 50.8816 64 32.3856C64 11.8272 46.1438 0.439646 32.0657 0.439646C35.965 -0.100354 53.0821 4.65961 53.0821 28.0544C53.0821 43.3108 40.3009 51.6163 31.9879 48.0677C31.7969 47.9969 22.5823 44.3619 22.5823 32.4875C22.5823 20.6636 31.9293 16.9603 31.9293 16.9603Z" fill="url(#paint1_linear)"/>
</g>
<defs>
<linearGradient id="paint0_linear" x1="9.46552" y1="9.8655" x2="57.2729" y2="51.8536" gradientUnits="userSpaceOnUse">
<stop/>
<stop offset="1" stop-color="white"/>
</linearGradient>
<linearGradient id="paint1_linear" x1="54.5519" y1="54.9519" x2="2.80722" y2="19.6159" gradientUnits="userSpaceOnUse">
<stop/>
<stop offset="1" stop-color="white"/>
</linearGradient>
<clipPath id="clip0">
<rect width="64" height="64" fill="white" transform="translate(0 0.399994)"/>
</clipPath>
</defs>
</svg>
