<svg width="30" height="30" viewBox="0 0 30 30" fill="none" xmlns="http://www.w3.org/2000/svg">
<path d="M24.9999 10.8625V6.24999C24.9999 5.56249 24.4374 4.99999 23.7499 4.99999H19.1374L15.8874 1.74999C15.3999 1.26249 14.6124 1.26249 14.1249 1.74999L10.8624 4.99999H6.2499C5.5624 4.99999 4.9999 5.56249 4.9999 6.24999V10.8625L1.7499 14.1125C1.2624 14.6 1.2624 15.3875 1.7499 15.875L4.9999 19.125V23.75C4.9999 24.4375 5.5624 25 6.2499 25H10.8624L14.1124 28.25C14.5999 28.7375 15.3874 28.7375 15.8749 28.25L19.1249 25H23.7499C24.4374 25 24.9999 24.4375 24.9999 23.75V19.1375L28.2499 15.8875C28.7374 15.4 28.7374 14.6125 28.2499 14.125L24.9999 10.8625ZM14.9999 22.5C10.8624 22.5 7.4999 19.1375 7.4999 15C7.4999 10.8625 10.8624 7.49999 14.9999 7.49999C19.1374 7.49999 22.4999 10.8625 22.4999 15C22.4999 19.1375 19.1374 22.5 14.9999 22.5ZM14.9999 9.99999C12.2374 9.99999 9.9999 12.2375 9.9999 15C9.9999 17.7625 12.2374 20 14.9999 20C17.7624 20 19.9999 17.7625 19.9999 15C19.9999 12.2375 17.7624 9.99999 14.9999 9.99999Z" fill="#EEEFF1"/>
</svg>
