<svg width="53" height="53" viewBox="0 0 53 53" fill="none" xmlns="http://www.w3.org/2000/svg">
<path d="M11.0418 33.125H41.9585C43.1731 33.125 44.1668 32.1312 44.1668 30.9167C44.1668 29.7021 43.1731 28.7083 41.9585 28.7083H11.0418C9.82725 28.7083 8.8335 29.7021 8.8335 30.9167C8.8335 32.1312 9.82725 33.125 11.0418 33.125ZM11.0418 41.9583H41.9585C43.1731 41.9583 44.1668 40.9646 44.1668 39.75C44.1668 38.5354 43.1731 37.5417 41.9585 37.5417H11.0418C9.82725 37.5417 8.8335 38.5354 8.8335 39.75C8.8335 40.9646 9.82725 41.9583 11.0418 41.9583ZM11.0418 24.2917H41.9585C43.1731 24.2917 44.1668 23.2979 44.1668 22.0833C44.1668 20.8687 43.1731 19.875 41.9585 19.875H11.0418C9.82725 19.875 8.8335 20.8687 8.8335 22.0833C8.8335 23.2979 9.82725 24.2917 11.0418 24.2917ZM8.8335 13.25C8.8335 14.4646 9.82725 15.4583 11.0418 15.4583H41.9585C43.1731 15.4583 44.1668 14.4646 44.1668 13.25C44.1668 12.0354 43.1731 11.0417 41.9585 11.0417H11.0418C9.82725 11.0417 8.8335 12.0354 8.8335 13.25Z" fill="#1A1C20"/>
</svg>
