<svg width="64" height="65" viewBox="0 0 64 65" fill="none" xmlns="http://www.w3.org/2000/svg">
<g clip-path="url(#clip0)">
<path d="M64 59.9984V5.80166C64 3.57834 62.5193 1.70193 60.4907 1.10181L58.1869 2.48026L32.6208 29.7395L31.8193 32.2448L31.351 34.6496L39.3234 64.4446L40.5569 64.9H59.0984C61.8055 64.9 64 62.7055 64 59.9984Z" fill="#EA6618"/>
<path d="M0 5.80173V59.9985C0 61.6745 0.841651 63.1533 2.12478 64.0372L3.69685 63.2844L30.7583 34.311L31.8193 32.2449L31.8589 30.2475L24.4938 2.22637L23.3785 0.900146H4.90159C2.19454 0.900146 0 3.09469 0 5.80173Z" fill="#D65813"/>
<path d="M31.8192 32.2448L60.4906 1.10188C60.0491 0.971251 59.5821 0.900055 59.0983 0.900055H23.3785L31.8192 32.2448Z" fill="#E05E11"/>
<path d="M4.90156 64.9H40.5568L31.8191 32.2448L2.12476 64.0371C2.91417 64.5809 3.87045 64.9 4.90156 64.9Z" fill="#DE5C16"/>
<path d="M23.7296 25.1574H27.2859C28.7028 30.504 30.3155 35.1956 32.1147 39.4288C34.1527 34.6661 35.6465 29.9713 36.911 25.1574H40.2715C38.7664 31.1389 36.3046 37.1674 33.4886 43.3898H30.5161C27.8112 37.4932 25.5084 31.4306 23.7296 25.1574ZM11.9996 15.8937H19.9072V49.803H11.9647V47.1891H16.8324V18.4379H11.9996V15.8937ZM52.0417 18.438H47.2088V47.1891H52.0765V49.803H44.1341V15.8937H52.0417V18.438Z" fill="white"/>
</g>
<defs>
<clipPath id="clip0">
<rect width="64" height="64" fill="white" transform="translate(0 0.900024)"/>
</clipPath>
</defs>
</svg>
