<svg width="64" height="19" viewBox="0 0 64 19" fill="none" xmlns="http://www.w3.org/2000/svg">
<g clip-path="url(#clip0)">
<path fill-rule="evenodd" clip-rule="evenodd" d="M59.5892 8.2079C59.5316 8.21945 59.4739 8.34637 59.4739 8.41555C59.4624 8.87694 59.4508 10.0997 59.4508 10.9302C59.4508 10.9533 59.4854 10.9994 59.52 10.9994C59.693 11.011 60.1083 11.0225 60.4659 11.0225C60.9619 11.0225 61.2503 10.9533 61.4118 10.8841C61.827 10.6765 62.0231 10.2265 62.0231 9.73052C62.0231 8.61166 61.2387 8.18481 60.0737 8.18481C59.9929 8.17337 59.7623 8.17337 59.5892 8.2079ZM62.5654 13.3642C62.5654 12.2222 61.7232 11.5877 60.2006 11.5877C60.1314 11.5877 59.6469 11.5762 59.5316 11.5993C59.4969 11.6108 59.4508 11.6339 59.4508 11.6685C59.4508 12.4875 59.4393 13.791 59.4739 14.2985C59.4969 14.5177 59.6585 14.8292 59.8546 14.9214C60.0621 15.0368 60.5352 15.0598 60.8581 15.0598C61.7694 15.0598 62.5654 14.5523 62.5654 13.3642ZM57.2361 7.57352C57.3514 7.57352 57.6975 7.60805 58.5857 7.60805C59.4277 7.60805 60.0968 7.58506 60.9158 7.58506C61.9193 7.58506 63.3036 7.94262 63.3036 9.44214C63.3036 10.1805 62.7845 10.7688 62.1039 11.0571C62.0693 11.0687 62.0693 11.0917 62.1039 11.1032C63.0728 11.3455 63.9265 11.9454 63.9265 13.0758C63.9265 14.1832 63.2344 14.8868 62.2308 15.3252C61.6194 15.5905 60.8581 15.6827 60.0852 15.6827C59.4969 15.6827 57.9167 15.6136 57.04 15.6367C56.9477 15.602 57.1207 15.1867 57.2014 15.1175C57.4091 15.106 57.5706 15.0944 57.7898 15.0253C58.1012 14.9445 58.1358 14.8522 58.182 14.3793C58.205 13.9756 58.205 12.5451 58.205 11.5301C58.205 10.1343 58.2166 9.18841 58.205 8.72703C58.1935 8.36947 58.0666 8.2541 57.8128 8.18481C57.6167 8.15027 57.2937 8.10408 57.0284 8.06954C56.9707 8.0118 57.1668 7.6196 57.2361 7.57352ZM50.5802 14.7484C50.8571 14.9675 51.3992 15.0598 51.8837 15.0598C52.5067 15.0598 53.1295 14.9445 53.7294 14.4023C54.3408 13.8486 54.7675 12.9951 54.7675 11.6339C54.7675 10.3304 54.2715 9.26914 53.2564 8.6463C52.6797 8.28863 51.9414 8.13872 51.0878 8.13872C50.834 8.13872 50.5917 8.15027 50.4418 8.21945C50.4072 8.24255 50.3265 8.34637 50.3265 8.40401C50.3034 8.63475 50.3034 10.4111 50.3034 11.4493C50.3034 12.5221 50.3034 14.0217 50.3265 14.1947C50.3265 14.3678 50.4072 14.6331 50.5802 14.7484ZM47.9617 7.57352C48.1809 7.57352 49.0229 7.60805 49.4267 7.60805C50.1535 7.60805 50.6725 7.57352 52.0452 7.57352C53.1987 7.57352 54.1677 7.88499 54.8598 8.47319C55.7018 9.19996 56.1402 10.2036 56.1402 11.4263C56.1402 13.1681 55.3443 14.1717 54.5483 14.7484C53.7525 15.3367 52.7142 15.6827 51.2378 15.6827C50.4534 15.6827 49.1038 15.6596 47.9848 15.6481H47.9732C47.9156 15.5444 48.0655 15.1406 48.1578 15.1291C48.4577 15.0944 48.5385 15.0829 48.6885 15.0253C48.9307 14.933 48.9769 14.8061 49.0115 14.3793C49.046 13.5834 49.0345 12.626 49.0345 11.5416C49.0345 10.7688 49.046 9.25759 49.0229 8.77311C48.9884 8.36947 48.8154 8.26565 48.4693 8.19636C48.2963 8.16182 48.0655 8.11563 47.7426 8.08109C47.6964 8.00026 47.9041 7.6427 47.9617 7.57352Z" fill="#8E714E"/>
<path fill-rule="evenodd" clip-rule="evenodd" d="M34.0041 15.1982C33.7157 15.1636 33.508 15.1175 33.2542 15.0021C33.2197 14.979 33.1619 14.8638 33.1619 14.8176C33.1388 14.4138 33.1388 13.2603 33.1388 12.4874C33.1388 11.8645 33.0351 11.3224 32.7697 10.9417C32.4582 10.5033 32.0084 10.2496 31.4316 10.2496C30.9241 10.2496 30.2435 10.5957 29.6783 11.0802C29.6667 11.0916 29.5745 11.1725 29.586 11.0456C29.586 10.9186 29.6091 10.6649 29.6207 10.4919C29.6322 10.3303 29.5399 10.2496 29.5399 10.2496C29.1707 10.4342 28.1326 10.6764 27.7519 10.711C27.4751 10.7687 27.4059 11.034 27.6943 11.1263H27.7058C28.0172 11.2186 28.2248 11.3224 28.3863 11.4262C28.5017 11.5185 28.4901 11.6454 28.4901 11.7492C28.5017 12.6144 28.5017 13.9409 28.4671 14.6677C28.4556 14.956 28.3749 15.0597 28.1672 15.1059L28.1902 15.0944C28.0287 15.129 27.9018 15.1636 27.7057 15.1867C27.6365 15.2559 27.6365 15.6251 27.7057 15.7058C27.8326 15.7058 28.5017 15.6711 29.0554 15.6711C29.8168 15.6711 30.209 15.7058 30.4051 15.7058C30.4858 15.6135 30.5089 15.2674 30.4627 15.1867C30.2435 15.1751 30.082 15.1521 29.9321 15.1059C29.7245 15.0597 29.6667 14.956 29.6552 14.7137C29.6322 14.1023 29.6322 12.8105 29.6322 11.9338C29.6322 11.6915 29.7014 11.5761 29.7706 11.5069C30.0358 11.2763 30.4627 11.1147 30.8433 11.1147C31.2125 11.1147 31.4547 11.2301 31.6393 11.3801C31.893 11.5877 31.9738 11.8876 32.0084 12.1068C32.066 12.6028 32.043 13.5833 32.043 14.4369C32.043 14.8983 32.0084 15.0137 31.8354 15.0713C31.7547 15.1059 31.547 15.1521 31.3047 15.1751C31.224 15.2559 31.2471 15.6135 31.3047 15.6942C31.6393 15.6942 32.0315 15.6596 32.6083 15.6596C33.3234 15.6596 33.7849 15.6942 33.9694 15.6942C34.0271 15.6251 34.0501 15.2905 34.004 15.1982H34.0041ZM37.1993 10.7918C36.5879 10.7918 36.2073 11.2648 36.2073 12.003C36.2073 12.7527 36.5417 13.6179 37.4877 13.6179C37.6491 13.6179 37.9491 13.5487 38.0874 13.3872C38.3066 13.1796 38.4566 12.7643 38.4566 12.326C38.4566 11.3686 37.9836 10.7918 37.1993 10.7918ZM37.1185 15.8903C36.8878 15.8903 36.7263 15.9595 36.6226 16.0173C36.138 16.3286 35.9189 16.6286 35.9189 16.9862C35.9189 17.3207 36.0457 17.586 36.3226 17.8167C36.6571 18.1051 37.1185 18.2436 37.7068 18.2436C38.8834 18.2436 39.4025 17.6091 39.4025 16.9862C39.4025 16.5478 39.1833 16.2595 38.7335 16.098C38.4105 15.9595 37.8221 15.8903 37.1185 15.8903ZM37.1993 18.8895C36.4956 18.8895 35.9881 18.7395 35.5498 18.405C35.1229 18.082 34.9384 17.5975 34.9384 17.2631C34.9384 17.1708 34.9615 16.9169 35.1691 16.6863C35.2959 16.5478 35.5728 16.2825 36.2304 15.8327C36.2533 15.8212 36.2649 15.8096 36.2649 15.7865C36.2649 15.7634 36.2418 15.7403 36.2188 15.7289C35.6766 15.5212 35.5151 15.1867 35.4689 15.0021V14.979C35.4575 14.9098 35.4344 14.8407 35.5382 14.7714C35.619 14.7137 35.7343 14.6446 35.8611 14.5638C36.0572 14.4485 36.2649 14.3215 36.3918 14.2177C36.4149 14.1946 36.4149 14.1716 36.4149 14.1485C36.4149 14.1254 36.3918 14.1023 36.3687 14.0909C35.5613 13.8255 35.1576 13.2257 35.1576 12.326C35.1576 11.7377 35.4229 11.207 35.8958 10.8726C36.2188 10.6187 37.0262 10.3073 37.5569 10.3073H37.5915C38.1336 10.3188 38.4335 10.4342 38.8603 10.5842C39.091 10.6649 39.3102 10.6994 39.6102 10.6994C40.06 10.6994 40.2561 10.5611 40.4175 10.3996C40.4291 10.4226 40.4522 10.4803 40.4637 10.6303C40.4753 10.7803 40.4291 10.9994 40.3137 11.1609C40.2214 11.2877 40.0139 11.3801 39.8063 11.3801H39.7485C39.5409 11.357 39.4486 11.3339 39.4486 11.3339L39.4025 11.357C39.391 11.3801 39.4025 11.4031 39.4141 11.4378L39.4256 11.4609C39.4486 11.5647 39.4948 11.876 39.4948 11.9569C39.4948 12.9027 39.1141 13.3179 38.7104 13.6294C38.3182 13.9178 37.8683 14.1023 37.3608 14.1485C37.3492 14.1485 37.3031 14.1485 37.1993 14.1601C37.1416 14.1601 37.0608 14.1716 37.0493 14.1716H37.0377C36.9455 14.1946 36.7148 14.31 36.7148 14.5061C36.7148 14.6791 36.8187 14.8867 37.3146 14.9214C37.4184 14.9329 37.5222 14.9329 37.6376 14.9445C38.2951 14.9906 39.1141 15.0483 39.4948 15.1751C40.0253 15.3712 40.3599 15.8442 40.3599 16.4095C40.3599 17.2631 39.7485 18.059 38.7335 18.5549C38.2374 18.7741 37.7414 18.8895 37.1993 18.8895ZM43.7744 10.8495C43.5321 10.8495 43.3129 10.9071 43.1514 11.0225C42.7016 11.2993 42.4708 11.8531 42.4708 12.6605C42.4708 14.1716 43.2321 15.2329 44.3165 15.2329C44.6395 15.2329 44.8932 15.1406 45.1124 14.956C45.4469 14.6791 45.62 14.1254 45.62 13.3526C45.62 11.8531 44.8701 10.8495 43.7744 10.8495ZM43.982 15.7865C42.021 15.7865 41.3173 14.3446 41.3173 12.995C41.3173 12.0492 41.698 11.3224 42.4593 10.8033C43.0015 10.4688 43.6474 10.2842 44.2242 10.2842C45.7237 10.2842 46.7735 11.357 46.7735 12.9027C46.7735 13.9524 46.3582 14.7829 45.5623 15.2905C45.1816 15.5442 44.5241 15.7865 43.9819 15.7865H43.982ZM23.4263 10.8495C23.184 10.8495 22.9649 10.9071 22.8033 11.0225C22.3535 11.2993 22.1227 11.8531 22.1227 12.6605C22.1227 14.1716 22.884 15.2329 23.9684 15.2329C24.2914 15.2329 24.5451 15.1406 24.7643 14.956C25.0988 14.6791 25.2719 14.1254 25.2719 13.3526C25.2719 11.8531 24.5336 10.8495 23.4263 10.8495ZM23.6339 15.7865C21.6729 15.7865 20.9692 14.3446 20.9692 12.995C20.9692 12.0492 21.3499 11.3224 22.1112 10.8033C22.6534 10.4688 23.2993 10.2842 23.8761 10.2842C25.3757 10.2842 26.4254 11.357 26.4254 12.9027C26.4254 13.9524 26.0101 14.7829 25.2142 15.2905C24.845 15.5442 24.1876 15.7865 23.6339 15.7865ZM10.4491 15.6711C10.4261 15.6366 10.403 15.5328 10.4145 15.4059C10.4145 15.3136 10.4376 15.2559 10.4491 15.2329C10.6913 15.1982 10.8183 15.1636 10.9566 15.129C11.1874 15.0713 11.2796 14.9445 11.2912 14.6561C11.3258 13.964 11.3258 12.6489 11.3143 11.7377V11.7146C11.3143 11.6108 11.3143 11.4838 11.1874 11.3916C11.0028 11.2763 10.7836 11.1725 10.4952 11.0916C10.3914 11.0571 10.3222 10.9994 10.3338 10.9302C10.3338 10.861 10.403 10.7803 10.553 10.7572C10.9336 10.7225 11.9256 10.4803 12.3178 10.3073C12.3409 10.3303 12.3755 10.3996 12.3755 10.4919L12.364 10.6187C12.3524 10.7456 12.3409 10.8956 12.3409 11.0456C12.3409 11.0916 12.3871 11.1263 12.4331 11.1263C12.4562 11.1263 12.4793 11.1147 12.5024 11.1032C13.2406 10.5264 13.9097 10.3188 14.2557 10.3188C14.821 10.3188 15.2593 10.5842 15.5939 11.1378C15.6169 11.1725 15.6399 11.1839 15.6746 11.1839C15.6977 11.1839 15.7322 11.1725 15.7438 11.1494C16.4244 10.6303 17.1049 10.3188 17.5548 10.3188C18.6275 10.3188 19.262 11.1147 19.262 12.4643C19.262 12.845 19.262 13.341 19.2505 13.791C19.2505 14.1946 19.2389 14.5638 19.2389 14.8291C19.2389 14.8867 19.3197 15.0713 19.4466 15.1059C19.6081 15.1867 19.8273 15.2213 20.1156 15.2674H20.1272C20.1503 15.3481 20.1041 15.6481 20.058 15.7058C19.9887 15.7058 19.8849 15.7058 19.7696 15.6942C19.5504 15.6827 19.2389 15.6711 18.8929 15.6711C18.1777 15.6711 17.8086 15.6827 17.4509 15.7058C17.428 15.6135 17.4164 15.3367 17.4509 15.2674C17.6586 15.2329 17.7624 15.1982 17.8893 15.1636C18.1201 15.0944 18.1777 14.9906 18.1893 14.6906C18.1893 14.4716 18.2353 12.6028 18.1662 12.1529C18.097 11.6915 17.7509 11.1494 16.9896 11.1494C16.7012 11.1494 16.2513 11.2648 15.813 11.5992C15.79 11.6223 15.7669 11.6799 15.7669 11.7146V11.7261C15.813 11.9683 15.813 12.2453 15.813 12.672V13.4218C15.813 13.9409 15.8014 14.4254 15.813 14.7945C15.813 15.0483 15.963 15.1059 16.0899 15.1521C16.1591 15.1636 16.2052 15.1751 16.2629 15.1867C16.3667 15.2098 16.4705 15.2329 16.632 15.2674C16.6551 15.3136 16.6551 15.4635 16.6205 15.5904C16.6089 15.6596 16.5858 15.6942 16.5744 15.7058C16.1822 15.6942 15.7784 15.6827 15.1901 15.6827C15.0171 15.6827 14.7172 15.6942 14.4633 15.6942C14.2557 15.6942 14.0596 15.7058 13.9443 15.7058C13.9328 15.6827 13.9097 15.602 13.9097 15.475C13.9097 15.3712 13.9328 15.2905 13.9559 15.2674C14.0135 15.2559 14.0596 15.2444 14.1173 15.2444C14.2557 15.2213 14.3711 15.1982 14.4864 15.1751C14.6825 15.1175 14.7517 15.0137 14.7633 14.7599C14.7979 14.1832 14.8324 12.5336 14.7517 12.1183C14.6134 11.4493 14.2327 11.1147 13.6213 11.1147C13.2637 11.1147 12.8138 11.2877 12.4447 11.5647C12.3871 11.6108 12.3409 11.7261 12.3409 11.83V12.5105C12.3409 13.341 12.3409 14.3793 12.3524 14.8291C12.364 14.9675 12.4101 15.129 12.6754 15.1867C12.7331 15.1982 12.8254 15.2213 12.9407 15.2329L13.1484 15.2674C13.1715 15.3367 13.1599 15.6135 13.1137 15.7058C12.9984 15.7058 12.86 15.6942 12.6984 15.6942C12.4562 15.6827 12.1448 15.6711 11.7988 15.6711C11.395 15.6711 11.1066 15.6827 10.8759 15.6942C10.7144 15.6711 10.5875 15.6711 10.4491 15.6711Z" fill="#442D22"/>
<path fill-rule="evenodd" clip-rule="evenodd" d="M4.38158 18.4397L3.90865 18.2781C3.90865 18.2781 3.96639 15.8672 3.10126 15.6942C2.5245 15.0252 3.19353 -12.6824 5.26981 15.602C5.26981 15.602 4.55469 15.9595 4.42777 16.5709C4.2893 17.1708 4.38158 18.4397 4.38158 18.4397Z" fill="white"/>
<path fill-rule="evenodd" clip-rule="evenodd" d="M4.38158 18.4397L3.90865 18.2781C3.90865 18.2781 3.96639 15.8672 3.10126 15.6942C2.5245 15.0252 3.19353 -12.6824 5.26981 15.602C5.26981 15.602 4.55469 15.9595 4.42777 16.5709C4.2893 17.1708 4.38158 18.4397 4.38158 18.4397Z" fill="#A6A385"/>
<path fill-rule="evenodd" clip-rule="evenodd" d="M4.63546 16.1095C4.63546 16.1095 8.77658 13.3872 7.80762 7.72338C6.87331 3.60537 4.67 2.25575 4.42781 1.73663C4.16253 1.36752 3.90869 0.721588 3.90869 0.721588L4.0818 12.176C4.0818 12.1875 3.72414 15.6827 4.63546 16.1095Z" fill="white"/>
<path fill-rule="evenodd" clip-rule="evenodd" d="M4.63546 16.1095C4.63546 16.1095 8.77658 13.3872 7.80762 7.72338C6.87331 3.60537 4.67 2.25575 4.42781 1.73663C4.16253 1.36752 3.90869 0.721588 3.90869 0.721588L4.0818 12.176C4.0818 12.1875 3.72414 15.6827 4.63546 16.1095Z" fill="#499D4A"/>
<path fill-rule="evenodd" clip-rule="evenodd" d="M3.66651 16.2595C3.66651 16.2595 -0.220865 13.6063 0.00988043 8.93465C0.22897 4.26287 2.97439 1.96739 3.50495 1.5521C3.85107 1.18299 3.86262 1.04452 3.88571 0.675415C4.1279 1.19454 4.08181 8.43863 4.11635 9.29221C4.22017 12.5797 3.9318 15.6366 3.66651 16.2595Z" fill="white"/>
<path fill-rule="evenodd" clip-rule="evenodd" d="M3.66651 16.2595C3.66651 16.2595 -0.220865 13.6063 0.00988043 8.93465C0.22897 4.26287 2.97439 1.96739 3.50495 1.5521C3.85107 1.18299 3.86262 1.04452 3.88571 0.675415C4.1279 1.19454 4.08181 8.43863 4.11635 9.29221C4.22017 12.5797 3.9318 15.6366 3.66651 16.2595Z" fill="#58AA50"/>
</g>
<defs>
<clipPath id="clip0">
<rect width="64" height="18.25" fill="white" transform="translate(0 0.650024)"/>
</clipPath>
</defs>
</svg>
