<svg width="64" height="65" viewBox="0 0 64 65" fill="none" xmlns="http://www.w3.org/2000/svg">
<g clip-path="url(#clip0)">
<path d="M46.3829 22.3585L46.3595 22.3485C46.3462 22.3435 46.3328 22.3384 46.3211 22.3268C46.2822 22.2851 46.2649 22.2277 46.2743 22.1715L47.566 14.2832L53.6232 20.3355L47.3237 23.0128C47.3062 23.0198 47.2874 23.0232 47.2685 23.0228H47.2435C47.2351 23.0178 47.2268 23.0111 47.21 22.9944C46.9756 22.7337 46.6953 22.5181 46.3829 22.3585ZM55.1689 21.8778L61.6456 28.3473C62.9907 29.6927 63.6641 30.3637 63.9098 31.1415C63.9465 31.2567 63.9766 31.3718 64 31.4903L48.5218 24.9423C48.5134 24.9389 48.5051 24.9355 48.4967 24.9323C48.4349 24.9072 48.363 24.8789 48.363 24.8154C48.363 24.752 48.4365 24.722 48.4984 24.6969L48.5184 24.6886L55.1689 21.8778ZM63.736 33.5667C63.4018 34.1943 62.7501 34.8453 61.6473 35.9486L54.3451 43.2411L44.9008 41.2765L44.8506 41.2665C44.7671 41.2531 44.6785 41.2381 44.6785 41.163C44.606 40.3763 44.2096 39.6551 43.584 39.1717C43.5456 39.1333 43.5556 39.0732 43.5673 39.0181C43.5673 39.0098 43.5673 39.0014 43.5707 38.9948L45.3469 28.102L45.3536 28.0653C45.3636 27.9818 45.3787 27.885 45.4539 27.885C46.2228 27.7894 46.9211 27.3895 47.3922 26.775C47.4072 26.7583 47.4172 26.74 47.4373 26.7299C47.4908 26.7049 47.5543 26.7299 47.6094 26.7533L63.7343 33.5667H63.736ZM52.6658 44.9185L40.6582 56.913L42.7135 44.2943L42.7168 44.2776C42.7185 44.2609 42.7218 44.2442 42.7268 44.2292C42.7435 44.1891 42.787 44.1724 42.8288 44.1558L42.8488 44.1474C43.2988 43.9556 43.6968 43.6599 44.0101 43.2845C44.0502 43.2377 44.0987 43.1927 44.1605 43.1843C44.1766 43.1817 44.1929 43.1817 44.209 43.1843L52.6641 44.9202L52.6658 44.9185ZM38.1166 59.4517L36.7631 60.8037L21.7995 39.2017C21.7941 39.1938 21.7886 39.1861 21.7828 39.1784C21.7594 39.1467 21.7344 39.115 21.7394 39.0782C21.7411 39.0515 21.7578 39.0282 21.7761 39.0081L21.7929 38.9864C21.838 38.9197 21.8764 38.8529 21.9182 38.7811L21.9516 38.7227L21.9566 38.7177C21.98 38.6776 22.0017 38.6392 22.0418 38.6175C22.0769 38.6009 22.1254 38.6075 22.1638 38.6159L38.7415 42.0309C38.7879 42.0381 38.8316 42.0571 38.8685 42.086C38.8903 42.1077 38.8953 42.1311 38.9003 42.1578C39.1347 43.0437 39.7702 43.7693 40.6181 44.119C40.6648 44.1424 40.6448 44.1941 40.6231 44.2492C40.6122 44.2734 40.6038 44.2985 40.598 44.3243C40.3891 45.5929 38.5978 56.5057 38.1166 59.4517ZM35.2893 62.2743C34.2917 63.2607 33.7036 63.7831 33.0385 63.9935C32.3828 64.2006 31.679 64.2006 31.0233 63.9935C30.2446 63.7464 29.5712 63.0754 28.2261 61.7301L13.199 46.7195L17.1241 40.6389C17.1425 40.6088 17.1609 40.5821 17.191 40.5604C17.2328 40.5304 17.2929 40.5437 17.343 40.5604C18.244 40.8319 19.2113 40.783 20.0801 40.4219C20.1252 40.4052 20.1703 40.3935 20.2054 40.4252C20.223 40.4412 20.2387 40.4591 20.2522 40.4786L35.2893 62.2759V62.2743ZM11.7503 45.2724L8.30307 41.829L15.1106 38.928C15.128 38.9204 15.1468 38.9165 15.1658 38.9163C15.2226 38.9163 15.256 38.9731 15.2861 39.0248C15.3545 39.13 15.427 39.2324 15.5033 39.3319L15.525 39.3586C15.5451 39.387 15.5317 39.4154 15.5117 39.4421L11.752 45.2724H11.7503ZM6.77747 40.305L2.41623 35.9486C1.67432 35.2075 1.13626 34.67 0.761964 34.2077L14.0228 36.9551C14.0395 36.9582 14.0562 36.961 14.0729 36.9634C14.1548 36.9768 14.2451 36.9918 14.2451 37.0686C14.2451 37.152 14.1465 37.1904 14.0629 37.2221L14.0245 37.2388L6.77747 40.305ZM0 31.9677C0.0151126 31.6871 0.0656415 31.4095 0.150388 31.1415C0.397692 30.3637 1.06942 29.6927 2.41623 28.3473L7.99728 22.7724C10.567 26.4977 13.1436 30.2183 15.7272 33.9339C15.7723 33.994 15.8225 34.0608 15.7707 34.1109C15.5267 34.3796 15.2827 34.6734 15.1106 34.9922C15.092 35.0332 15.0632 35.0688 15.0271 35.0957C15.0054 35.109 14.982 35.104 14.9569 35.099H14.9536L0 31.966V31.9677ZM9.49114 21.2802L16.9955 13.7841C17.7006 14.0929 20.2673 15.1762 22.5632 16.1443C24.301 16.8787 25.8851 17.5463 26.383 17.7633C26.4331 17.7834 26.4783 17.8034 26.5 17.8535C26.5134 17.8835 26.5067 17.9219 26.5 17.9536C26.2587 19.0528 26.5871 20.1995 27.3739 21.0048C27.424 21.0549 27.3739 21.1266 27.3305 21.1884L27.3071 21.2235L19.6874 33.0126C19.6674 33.046 19.649 33.0743 19.6156 33.096C19.5755 33.1211 19.5187 33.1094 19.4719 33.0977C19.1755 33.0202 18.8709 32.9787 18.5645 32.9742C18.2905 32.9742 17.9931 33.0243 17.6923 33.0793H17.6906C17.6572 33.0844 17.6271 33.091 17.6004 33.071C17.5708 33.0469 17.5455 33.0181 17.5252 32.9859L9.49114 21.2802ZM18.5111 12.2702L28.2261 2.56583C29.5712 1.22217 30.2446 0.54951 31.0233 0.304146C31.679 0.0970228 32.3828 0.0970228 33.0385 0.304146C33.8172 0.54951 34.4906 1.22217 35.8357 2.56583L37.9412 4.66894L31.0317 15.3581C31.0146 15.3892 30.9913 15.4165 30.9632 15.4382C30.9214 15.4666 30.8629 15.4549 30.8128 15.4382C29.7068 15.103 28.5065 15.334 27.6045 16.0558C27.5594 16.1025 27.4925 16.0758 27.4357 16.0508C26.5334 15.6586 19.5153 12.6958 18.5111 12.2702ZM39.4083 6.13445L45.788 12.5072L44.2508 22.018V22.043C44.2494 22.0647 44.2449 22.086 44.2374 22.1064C44.2207 22.1398 44.1873 22.1465 44.1538 22.1565C43.8252 22.256 43.5156 22.41 43.2381 22.6122C43.2262 22.6207 43.215 22.6302 43.2047 22.6406C43.1863 22.6606 43.168 22.6789 43.1379 22.6823C43.1134 22.683 43.089 22.6791 43.066 22.6706L33.3443 18.5445L33.3259 18.5361C33.2641 18.5111 33.1906 18.4811 33.1906 18.4176C33.1334 17.8765 32.9565 17.3548 32.6726 16.8904C32.6258 16.8136 32.574 16.7335 32.6141 16.655L39.4083 6.13445ZM32.838 20.4991L41.9515 24.3548C42.0016 24.3781 42.0568 24.3998 42.0785 24.4516C42.0872 24.4827 42.0872 24.5156 42.0785 24.5467C42.0517 24.6802 42.0284 24.8321 42.0284 24.9857V25.2411C42.0284 25.3045 41.9632 25.3312 41.903 25.3562L41.8847 25.3629C40.4409 25.9788 21.6157 33.9974 21.5873 33.9974C21.5589 33.9974 21.5288 33.9974 21.5004 33.969C21.4503 33.9189 21.5004 33.8488 21.5455 33.7854C21.5535 33.7744 21.5613 33.7633 21.5689 33.752L29.0582 22.1682L29.0716 22.1482C29.1151 22.0781 29.1652 21.9996 29.2454 21.9996L29.3206 22.0113C29.491 22.0347 29.6414 22.0564 29.7935 22.0564C30.9297 22.0564 31.9825 21.5039 32.6174 20.5591C32.6326 20.5339 32.6518 20.5114 32.6742 20.4924C32.7194 20.459 32.7862 20.4757 32.838 20.4991ZM22.4011 35.8301L42.9207 27.0888C42.9207 27.0888 42.9507 27.0888 42.9791 27.1172C43.0911 27.229 43.1863 27.3041 43.2782 27.3742L43.3234 27.4026C43.3651 27.426 43.4069 27.4527 43.4103 27.4961C43.4103 27.5128 43.4103 27.5228 43.4069 27.5378L41.649 38.3238L41.6424 38.3672C41.6307 38.4506 41.619 38.5458 41.5404 38.5458C40.589 38.6099 39.7305 39.1389 39.2462 39.9595L39.2378 39.9729C39.2144 40.0113 39.1927 40.048 39.1543 40.068C39.1192 40.0847 39.0741 40.078 39.0373 40.0697L22.6735 36.698C22.6567 36.6947 22.4195 35.8318 22.4011 35.8301Z" fill="url(#paint0_radial)"/>
</g>
<defs>
<radialGradient id="paint0_radial" cx="0" cy="0" r="1" gradientUnits="userSpaceOnUse" gradientTransform="translate(32 -31.8512) scale(63.9999)">
<stop stop-color="#20C6B7"/>
<stop offset="1" stop-color="#4D9ABF"/>
</radialGradient>
<clipPath id="clip0">
<rect width="64" height="64" fill="white" transform="translate(0 0.148804)"/>
</clipPath>
</defs>
</svg>
