<svg width="64" height="74" viewBox="0 0 64 74" fill="none" xmlns="http://www.w3.org/2000/svg">
<g clip-path="url(#clip0)">
<path d="M32 73.016C31.0062 73.016 30.0787 72.751 29.2174 72.2872L20.4058 67.0532C19.0807 66.3245 19.7433 66.0594 20.1408 65.9269C21.9296 65.3307 22.2609 65.1982 24.1159 64.1381C24.3147 64.0056 24.5797 64.0719 24.7785 64.2044L31.5362 68.2458C31.8012 68.3783 32.1325 68.3783 32.3313 68.2458L58.766 52.9414C59.0311 52.8089 59.1636 52.5439 59.1636 52.2127V21.6702C59.1636 21.3389 59.0311 21.0739 58.766 20.9414L32.3313 5.70334C32.0663 5.57083 31.735 5.57083 31.5362 5.70334L5.10145 20.9414C4.83644 21.0739 4.70393 21.4052 4.70393 21.6702V52.2127C4.70393 52.4777 4.83644 52.8089 5.10145 52.9414L12.323 57.1153C16.2319 59.1029 18.6832 56.7841 18.6832 54.4652V24.3203C18.6832 23.9228 19.0145 23.5253 19.4783 23.5253H22.8571C23.2547 23.5253 23.6522 23.8565 23.6522 24.3203V54.4652C23.6522 59.6992 20.8033 62.7468 15.8344 62.7468C14.3106 62.7468 13.118 62.7468 9.73913 61.0905L2.78261 57.1153C1.06004 56.1216 0 54.2665 0 52.2789V21.7365C0 19.7489 1.06004 17.8938 2.78261 16.9L29.2174 1.59568C30.8737 0.66814 33.1263 0.66814 34.7826 1.59568L61.2174 16.9C62.94 17.8938 64 19.7489 64 21.7365V52.2789C64 54.2665 62.94 56.1216 61.2174 57.1153L34.7826 72.4197C33.9213 72.8172 32.9275 73.016 32 73.016ZM40.1491 52.0139C28.5549 52.0139 26.1698 46.7137 26.1698 42.2085C26.1698 41.811 26.501 41.4135 26.9648 41.4135H30.4099C30.8075 41.4135 31.1387 41.6785 31.1387 42.076C31.6687 45.5874 33.1925 47.31 40.2153 47.31C45.7805 47.31 48.1656 46.0512 48.1656 43.0698C48.1656 41.3472 47.5031 40.0884 38.824 39.2271C31.6025 38.4984 27.0973 36.9083 27.0973 31.1443C27.0973 25.7779 31.6025 22.5977 39.1553 22.5977C47.6356 22.5977 51.8095 25.5129 52.3395 31.8731C52.3395 32.0719 52.2733 32.2706 52.1408 32.4694C52.0083 32.6019 51.8095 32.7344 51.6108 32.7344H48.1656C47.8344 32.7344 47.5031 32.4694 47.4369 32.1381C46.6418 28.4942 44.588 27.3017 39.1553 27.3017C33.06 27.3017 32.3313 29.4218 32.3313 31.0118C32.3313 32.9332 33.1925 33.5294 41.4079 34.5895C49.5569 35.6495 53.3996 37.1733 53.3996 42.871C53.3333 48.7013 48.5631 52.0139 40.1491 52.0139Z" fill="#539E43"/>
</g>
<defs>
<clipPath id="clip0">
<rect width="64" height="72.25" fill="white" transform="translate(0 0.900024)"/>
</clipPath>
</defs>
</svg>
