<svg width="64" height="63" viewBox="0 0 64 63" fill="none" xmlns="http://www.w3.org/2000/svg">
<g clip-path="url(#clip0)">
<path d="M11.3333 0H52.6667C58.9333 0 64 5.06667 64 11.3333V51.0667C64 57.3333 58.9333 62.4 52.6667 62.4H11.3333C5.06667 62.4 0 57.3333 0 51.0667V11.3333C0 5.06667 5.06667 0 11.3333 0Z" fill="#001E36"/>
<path d="M14.4 43.76V16.32C14.4 16.1333 14.48 16.0267 14.6667 16.0267C15.12 16.0267 15.5467 16.0267 16.16 16C16.8 15.9733 17.4667 15.9733 18.1867 15.9467C18.9067 15.92 19.68 15.92 20.5067 15.8933C21.3334 15.8667 22.1334 15.8667 22.9334 15.8667C25.12 15.8667 26.9334 16.1333 28.4267 16.6933C29.76 17.1467 30.9867 17.8933 32 18.88C32.8534 19.7333 33.52 20.7733 33.9467 21.92C34.3467 23.04 34.56 24.1867 34.56 25.3867C34.56 27.68 34.0267 29.5733 32.96 31.0667C31.8934 32.56 30.4 33.68 28.6667 34.32C26.8534 34.9867 24.8534 35.2267 22.6667 35.2267C22.0267 35.2267 21.6 35.2267 21.3334 35.2C21.0667 35.1733 20.6934 35.1733 20.1867 35.1733V43.7333C20.2134 43.92 20.08 44.08 19.8934 44.1067C19.8667 44.1067 19.84 44.1067 19.7867 44.1067H14.72C14.5067 44.1067 14.4 44 14.4 43.76ZM20.2134 21.1733V30.1333C20.5867 30.16 20.9334 30.1867 21.2534 30.1867H22.6667C23.7067 30.1867 24.7467 30.0267 25.7334 29.7067C26.5867 29.4667 27.3334 28.96 27.92 28.2933C28.48 27.6267 28.7467 26.72 28.7467 25.5467C28.7734 24.72 28.56 23.8933 28.1334 23.1733C27.68 22.48 27.04 21.9467 26.2667 21.6533C25.28 21.2533 24.2134 21.0933 23.12 21.12C22.4267 21.12 21.8134 21.12 21.3067 21.1467C20.7734 21.12 20.4 21.1467 20.2134 21.1733Z" fill="#31A8FF"/>
<path d="M51.2 28.5067C50.4 28.08 49.5466 27.7867 48.64 27.6C47.6533 27.3867 46.6666 27.2533 45.6533 27.2533C45.12 27.2267 44.56 27.3067 44.0533 27.44C43.7066 27.52 43.4133 27.7067 43.2266 27.9733C43.0933 28.1867 43.0133 28.4533 43.0133 28.6933C43.0133 28.9333 43.12 29.1733 43.28 29.3867C43.52 29.68 43.84 29.92 44.1866 30.1067C44.8 30.4267 45.44 30.72 46.08 30.9867C47.52 31.4667 48.9066 32.1333 50.1866 32.9333C51.0666 33.4933 51.7866 34.24 52.2933 35.1467C52.72 36 52.9333 36.9333 52.9066 37.8933C52.9333 39.1467 52.56 40.4 51.8666 41.44C51.12 42.5067 50.08 43.3333 48.88 43.8133C47.5733 44.3733 45.9733 44.6667 44.0533 44.6667C42.8266 44.6667 41.6266 44.56 40.4266 44.32C39.4933 44.16 38.56 43.8667 37.7066 43.4667C37.52 43.36 37.3866 43.1733 37.4133 42.96V38.32C37.4133 38.24 37.44 38.1333 37.52 38.08C37.6 38.0267 37.68 38.0533 37.76 38.1067C38.8 38.72 39.8933 39.1467 41.0666 39.4133C42.08 39.68 43.1466 39.8133 44.2133 39.8133C45.2266 39.8133 45.9466 39.68 46.4266 39.44C46.8533 39.2533 47.1466 38.8 47.1466 38.32C47.1466 37.9467 46.9333 37.6 46.5066 37.2533C46.08 36.9067 45.2 36.5067 43.8933 36C42.5333 35.52 41.28 34.88 40.1066 34.08C39.28 33.4933 38.5866 32.72 38.08 31.8133C37.6533 30.96 37.44 30.0267 37.4666 29.0933C37.4666 27.9467 37.7866 26.8533 38.3733 25.8667C39.04 24.8 40.0266 23.9467 41.1733 23.4133C42.4266 22.7733 44 22.48 45.8933 22.48C46.9866 22.48 48.1066 22.56 49.2 22.72C50 22.8267 50.7733 23.04 51.4933 23.3333C51.6 23.36 51.7066 23.4667 51.76 23.5733C51.7866 23.68 51.8133 23.7867 51.8133 23.8933V28.24C51.8133 28.3467 51.76 28.4533 51.68 28.5067C51.44 28.56 51.3066 28.56 51.2 28.5067Z" fill="#31A8FF"/>
</g>
<defs>
<clipPath id="clip0">
<rect width="64" height="62.4" fill="white"/>
</clipPath>
</defs>
</svg>
