<svg width="64" height="36" viewBox="0 0 64 36" fill="none" xmlns="http://www.w3.org/2000/svg">
<g clip-path="url(#clip0)">
<path d="M19.5165 23.2957C22.7209 23.2957 25.3187 20.6979 25.3187 17.4935C25.3187 14.289 22.7209 11.6913 19.5165 11.6913C16.312 11.6913 13.7143 14.289 13.7143 17.4935C13.7143 20.6979 16.312 23.2957 19.5165 23.2957ZM5.8022 34.9001C9.00666 34.9001 11.6044 32.3023 11.6044 29.0979C11.6044 25.8934 9.00666 23.2957 5.8022 23.2957C2.59773 23.2957 0 25.8934 0 29.0979C0 32.3023 2.59773 34.9001 5.8022 34.9001ZM58.1978 34.9001C61.4023 34.9001 64 32.3023 64 29.0979C64 25.8934 61.4023 23.2957 58.1978 23.2957C54.9933 23.2957 52.3956 25.8934 52.3956 29.0979C52.3956 32.3023 54.9933 34.9001 58.1978 34.9001Z" fill="black"/>
<path d="M39.1414 17.738C38.9559 15.7995 38.8614 14.1861 37.3764 13.0521C35.4957 11.616 33.3653 12.5478 30.7411 11.6006C28.1626 10.9768 26.25 8.68745 26.25 5.95866C26.25 2.74997 28.8945 0.148804 32.1566 0.148804C34.5727 0.148804 36.6499 1.57567 37.5649 3.61944C38.9653 6.27934 38.0551 8.98631 39.8146 10.3498C41.8979 11.9644 44.7065 10.782 47.8405 12.3117C48.8475 12.7745 49.6999 13.5084 50.3005 14.418C50.9011 15.3277 51.25 16.4129 51.25 17.5784C51.25 20.3072 49.3374 22.5966 46.7589 23.2203C44.1347 24.1675 42.0043 23.2357 40.1236 24.6718C38.0088 26.2867 39.141 28.9885 37.4173 31.8424C36.439 33.7217 34.4505 35.008 32.1566 35.008C28.8945 35.008 26.25 32.4068 26.25 29.1981C26.25 26.8672 27.6455 24.8569 29.6595 23.9315C32.7935 22.4018 35.6021 23.5841 37.6854 21.9696C38.8873 21.0382 39.1414 19.6014 39.1414 17.738Z" fill="#D0021B"/>
</g>
<defs>
<clipPath id="clip0">
<rect width="64" height="35" fill="white" transform="translate(0 0.148804)"/>
</clipPath>
</defs>
</svg>
