<svg width="64" height="65" viewBox="0 0 64 65" fill="none" xmlns="http://www.w3.org/2000/svg">
<path d="M37.3578 32.3518C37.3578 29.4829 34.9592 27.1571 32 27.1571C29.0411 27.1571 26.6422 29.4829 26.6422 32.3518C26.6422 35.2209 29.0411 37.5468 32 37.5468C34.9592 37.5468 37.3578 35.2209 37.3578 32.3518Z" fill="#53C1DE"/>
<path fill-rule="evenodd" clip-rule="evenodd" d="M49.4007 22.7074C50.5322 18.2496 51.9545 9.98296 46.9408 7.18032C41.9506 4.38989 35.4569 9.73684 32.0279 12.9464C28.6089 9.76883 21.9327 4.44473 16.9233 7.25627C11.935 10.056 13.4733 18.1856 14.6298 22.6714C9.97662 23.9528 2 26.7128 2 32.3518C2 37.9748 9.96832 40.9776 14.594 42.2578C13.4332 46.7684 11.9719 54.7819 16.9665 57.5753C21.9945 60.3863 28.6501 55.189 32.1107 51.9444C35.5617 55.1728 41.9932 60.4041 46.9843 57.6028C51.9913 54.7926 50.6871 46.6368 49.5306 42.1249C54.0145 40.842 62 37.9046 62 32.3518C62 26.7669 53.9807 23.9845 49.4007 22.7074ZM48.8325 39.7339C48.073 37.4031 47.0481 34.9246 45.7942 32.3642C46.991 29.8642 47.9761 27.4176 48.7143 25.1018C52.0718 26.0455 59.437 28.2026 59.437 32.3518C59.437 36.5399 52.3693 38.7174 48.8325 39.7339ZM45.6999 55.452C41.9761 57.542 36.4443 52.5393 33.8957 50.1618C35.5864 48.3688 37.276 46.2844 38.925 43.9699C41.8257 43.7204 44.5661 43.3123 47.0513 42.7555C47.8653 45.9468 49.4404 53.3525 45.6999 55.452ZM18.2472 55.4222C14.5229 53.34 16.2252 46.1893 17.0791 42.8667C19.5367 43.3937 22.2571 43.7729 25.1648 44.0016C26.8247 46.2664 28.5631 48.3482 30.3152 50.1713C28.1505 52.2015 21.989 57.514 18.2472 55.4222ZM4.56298 32.3518C4.56298 28.1479 11.8841 26.0066 15.3181 25.0652C16.069 27.4331 17.0539 29.9088 18.2425 32.4123C17.0385 34.9532 16.0395 37.4683 15.2817 39.8639C12.0074 38.9552 4.56298 36.5583 4.56298 32.3518ZM18.2074 9.40708C21.947 7.30832 27.7494 12.4196 30.2318 14.7203C28.4888 16.5351 26.7662 18.6012 25.1207 20.8529C22.2988 21.1065 19.5975 21.5138 17.1142 22.0594C16.1825 18.4414 14.4718 11.5036 18.2074 9.40708ZM40.7585 23.5542C42.673 23.7885 44.5071 24.1 46.2294 24.4813C45.7124 26.0881 45.0679 27.7683 44.309 29.4907C43.2088 27.4665 42.0278 25.4832 40.7585 23.5542ZM32.0287 16.4962C33.2109 17.7379 34.3949 19.1246 35.5595 20.6289C33.1971 20.5207 30.8306 20.5202 28.4681 20.6274C29.6338 19.137 30.8279 17.7523 32.0287 16.4962ZM19.713 29.4889C18.9666 27.7724 18.328 26.0847 17.8064 24.455C19.5184 24.0835 21.3439 23.78 23.246 23.5495C21.9732 25.4743 20.7942 27.4569 19.713 29.4889ZM23.3007 41.3315C21.3357 41.1188 19.4825 40.8307 17.7711 40.4695C18.3009 38.8109 18.9536 37.087 19.7159 35.3337C20.8121 37.3866 22.009 39.3885 23.3007 41.3315ZM32.0996 48.383C30.8847 47.1119 29.6731 45.7062 28.4896 44.1941C30.8657 44.2847 33.2463 44.2848 35.6219 44.182C34.4536 45.7216 33.2738 47.1294 32.0996 48.383ZM44.3335 35.2444C45.1354 37.0167 45.8114 38.7314 46.3484 40.3619C44.6086 40.7468 42.7304 41.0567 40.7514 41.2869C42.03 39.3215 43.2297 37.3072 44.3335 35.2444ZM37.4945 41.5881C33.8603 41.8399 30.2031 41.8372 26.5676 41.6087C24.5018 38.6829 22.6629 35.6059 21.0755 32.4115C22.6551 29.2238 24.4807 26.1529 26.5368 23.2316C30.1751 22.9649 33.8356 22.9643 37.4738 23.2331C39.5121 26.1542 41.335 29.2172 42.9513 32.3763C41.3542 35.5625 39.5191 38.6396 37.4945 41.5881ZM45.6606 9.33318C49.4012 11.4251 47.7362 18.8545 46.919 22.0851C44.4299 21.5282 41.7267 21.1137 38.8966 20.8563C37.2478 18.5801 35.5396 16.5104 33.8248 14.719C36.339 12.3688 41.9562 7.26177 45.6606 9.33318Z" fill="#53C1DE"/>
</svg>
