<svg width="64" height="65" viewBox="0 0 64 65" fill="none" xmlns="http://www.w3.org/2000/svg">
<path d="M43.5737 43.2622C45.7878 43.0368 47.4676 41.1603 47.3912 38.9081C47.315 36.6563 45.406 34.8546 43.1155 34.8546H42.9629C40.5957 34.9297 38.7634 36.8814 38.8398 39.2084C38.9162 40.3345 39.3741 41.3103 40.0613 41.9859C37.4654 47.0155 33.4951 50.6937 27.5396 53.7714C23.4929 55.8733 19.2936 56.624 15.0943 56.0987C11.6584 55.6482 8.98601 54.147 7.30601 51.6695C4.86289 47.9913 4.6339 44.0127 6.69547 40.0342C8.14625 37.1816 10.4366 35.0797 11.8873 34.0288C11.582 33.0529 11.1237 31.4015 10.8948 30.2006C-0.176409 38.0826 0.968982 48.742 4.32851 53.7714C6.84804 57.525 11.9637 59.852 17.6138 59.852C19.1408 59.852 20.6677 59.7018 22.1949 59.3266C31.9681 57.4499 39.3744 51.7446 43.5737 43.2622ZM57.0118 33.9539C51.2089 27.2728 42.6575 23.5946 32.8843 23.5946H31.6627C30.9755 22.2435 29.5248 21.3425 27.9214 21.3425H27.7686C25.4019 21.4176 23.5695 23.3693 23.6457 25.6965C23.7221 27.9484 25.6309 29.7501 27.9214 29.7501H28.074C29.7537 29.675 31.2045 28.624 31.8153 27.1977H33.1897C38.9926 27.1977 44.4898 28.8491 49.453 32.0771C53.2705 34.5544 56.0192 37.7823 57.5462 41.6856C58.8441 44.8385 58.7677 47.9162 57.3934 50.5437C55.2556 54.5221 51.6671 56.6991 46.9332 56.6991C43.8791 56.6991 40.9777 55.7982 39.4505 55.1226C38.6108 55.8733 37.0836 57.0743 36.0146 57.8252C39.298 59.3264 42.6575 60.1522 45.8642 60.1522C53.1941 60.1522 58.6152 56.1736 60.6767 52.1951C62.8909 47.8411 62.738 40.3345 57.0118 33.9539ZM18.2246 44.538C18.301 46.7901 20.2098 48.5916 22.5003 48.5916H22.6531C25.0201 48.5167 26.8524 46.5648 26.776 44.2378C26.6998 41.9856 24.7909 40.1842 22.5003 40.1842H22.3477C22.1949 40.1842 21.9657 40.1842 21.8134 40.2591C18.6828 35.1546 17.3848 29.5999 17.843 23.5944C18.1482 19.0904 19.6754 15.1868 22.3477 11.9589C24.5619 9.18138 28.8376 7.83019 31.7391 7.75531C39.8323 7.60507 43.268 17.5138 43.4973 21.4925C44.4898 21.7176 46.1696 22.2432 47.315 22.6186C46.3986 10.4579 38.7634 4.15222 31.4337 4.15222C24.5619 4.15222 18.2246 9.03161 15.7048 16.238C12.1927 25.8465 14.4833 35.0797 18.759 42.3612C18.3774 42.8866 18.1482 43.7124 18.2246 44.5382V44.538Z" fill="#764ABC"/>
</svg>
