<svg width="49" height="48" viewBox="0 0 49 48" fill="none" xmlns="http://www.w3.org/2000/svg">
<path d="M32.8696 17.2174L19.3044 29.2174C19.1304 29.3913 19.1304 29.5652 19.1304 29.7391L18.6087 34.4348C18.6087 34.6087 18.4348 34.6087 18.2609 34.4348L16.1739 27.4783C16 27.1304 16.1739 26.7826 16.5217 26.6087L32.3478 16.6956C32.8696 16.5217 33.2174 17.0435 32.8696 17.2174Z" fill="#1A1C20"/>
<path d="M24.1739 0C17.5652 0 11.4783 2.6087 7.13043 6.95652C2.78261 11.3043 0 17.3913 0 24C0 30.6087 2.6087 36.6957 7.13043 41.0435C11.4783 45.3913 17.5652 48 24.1739 48C30.7826 48 36.8696 45.3913 41.2174 41.0435C45.5652 36.6957 48.3478 30.6087 48.3478 24C48.1739 10.7826 37.3913 0 24.1739 0ZM38.4348 13.7391L33.5652 37.3913C33.3913 38.4348 32 38.9565 31.1304 38.2609L23.6522 32.6957L19.8261 36.5217C19.1304 37.2174 18.087 36.8696 17.7391 36L14.9565 27.3043L7.65217 25.0435C6.6087 24.6957 6.6087 23.4783 7.65217 23.1304L36.6957 11.8261C37.5652 11.6522 38.7826 12.5217 38.4348 13.7391Z" fill="#1A1C20"/>
</svg>
