<svg xmlns='http://www.w3.org/2000/svg' dispaly='none'>
  <symbol id='light_theme-icon' viewBox="0 0 30 30" fill="none"
    xmlns="http://www.w3.org/2000/svg">
    <path d="M24.9999 10.8625V6.24999C24.9999 5.56249 24.4374 4.99999 23.7499 4.99999H19.1374L15.8874 1.74999C15.3999 1.26249 14.6124 1.26249 14.1249 1.74999L10.8624 4.99999H6.2499C5.5624 4.99999 4.9999 5.56249 4.9999 6.24999V10.8625L1.7499 14.1125C1.2624 14.6 1.2624 15.3875 1.7499 15.875L4.9999 19.125V23.75C4.9999 24.4375 5.5624 25 6.2499 25H10.8624L14.1124 28.25C14.5999 28.7375 15.3874 28.7375 15.8749 28.25L19.1249 25H23.7499C24.4374 25 24.9999 24.4375 24.9999 23.75V19.1375L28.2499 15.8875C28.7374 15.4 28.7374 14.6125 28.2499 14.125L24.9999 10.8625ZM14.9999 22.5C10.8624 22.5 7.4999 19.1375 7.4999 15C7.4999 10.8625 10.8624 7.49999 14.9999 7.49999C19.1374 7.49999 22.4999 10.8625 22.4999 15C22.4999 19.1375 19.1374 22.5 14.9999 22.5ZM14.9999 9.99999C12.2374 9.99999 9.9999 12.2375 9.9999 15C9.9999 17.7625 12.2374 20 14.9999 20C17.7624 20 19.9999 17.7625 19.9999 15C19.9999 12.2375 17.7624 9.99999 14.9999 9.99999Z"/>
  </symbol>
  <symbol id='dark_theme-icon' viewBox="0 0 30 30" fill="none"
    xmlns="http://www.w3.org/2000/svg">
    <path d="M28.25 14.1125L25 10.8625V6.24999C25 5.56249 24.4375 4.99999 23.75 4.99999H19.1375L15.8875 1.74999C15.4 1.26249 14.6125 1.26249 14.125 1.74999L10.8625 4.99999H6.25002C5.56252 4.99999 5.00002 5.56249 5.00002 6.24999V10.8625L1.75002 14.1125C1.26252 14.6 1.26252 15.3875 1.75002 15.875L5.00002 19.125V23.75C5.00002 24.4375 5.56252 25 6.25002 25H10.8625L14.1125 28.25C14.6 28.7375 15.3875 28.7375 15.875 28.25L19.125 25H23.75C24.4375 25 25 24.4375 25 23.75V19.1375L28.25 15.8875C28.7375 15.4 28.7375 14.6 28.25 14.1125ZM22.4 16.225C21.975 18.875 20.0875 21.15 17.55 22.05C16.0375 22.5875 14.5375 22.6125 13.175 22.275C12.6625 22.15 12.575 21.4625 13.0125 21.15C14.975 19.8 16.25 17.55 16.25 15C16.25 12.45 14.975 10.2 13.025 8.84999C12.5875 8.54999 12.6625 7.86249 13.1875 7.72499C14.55 7.38749 16.05 7.41249 17.5625 7.94999C20.0875 8.84999 21.9875 11.125 22.4125 13.775C22.475 14.1875 22.5 14.6 22.5 15C22.4875 15.4 22.4625 15.8125 22.4 16.225Z"/>
  </symbol>
</svg>